<svg xmlns="http://www.w3.org/2000/svg" xmlns:xlink="http://www.w3.org/1999/xlink" fill="none" version="1.1" width="14.25" height="14.25" viewBox="0 0 14.25 14.25"><g><g><path d="M7.12522,0C3.18972,0,0,3.19084,0,7.125C0,11.0612,3.18972,14.25,7.12522,14.25C11.0599,14.25,14.25,11.0612,14.25,7.125C14.25,3.19084,11.0599,0,7.12522,0L7.12522,0Z" fill-rule="evenodd" fill="#FFD740" fill-opacity="1"/></g><g><path d="M7.125341796875,1.0695370435714722C3.780661796875,1.0695370435714722,1.069091796875,3.7809970435714724,1.069091796875,7.124997043571472C1.069091796875,10.469787043571472,3.780661796875,13.181237043571473,7.125341796875,13.181237043571473C10.469461796875,13.181237043571473,13.180991796875,10.469787043571472,13.180991796875,7.124997043571472C13.180991796875,3.7809970435714724,10.469461796875,1.0695370435714722,7.125341796875,1.0695370435714722L7.125341796875,1.0695370435714722Z" fill-rule="evenodd" fill="#F57F17" fill-opacity="1"/></g><g><path d="M7.125341796875,1.513837456703186C3.780661796875,1.513837456703186,1.069091796875,3.780997456703186,1.069091796875,7.124997456703186C1.069091796875,10.469787456703186,3.780661796875,13.181237456703187,7.125341796875,13.181237456703187C10.469461796875,13.181237456703187,13.180991796875,10.469787456703186,13.180991796875,7.124997456703186C13.180991796875,3.780997456703186,10.469461796875,1.513837456703186,7.125341796875,1.513837456703186L7.125341796875,1.513837456703186Z" fill-rule="evenodd" fill="#FFAB00" fill-opacity="1"/></g><g><path d="M9.089773733978271,7.714585833282471C8.807513733978272,7.3777958332824705,8.273143733978271,7.102845833282471,7.492153733978272,6.891775833282471C7.445263733978272,6.878165833282471,6.886033733978271,6.702965833282471,6.782583733978271,6.6557358332824705C6.570603733978271,6.5654358332824705,6.412833733978271,6.44600583328247,6.308363733978272,6.297005833282471C6.253493733978272,6.21829583328247,6.213343733978272,6.137555833282471,6.186693733978272,6.051305833282471C6.186473733978271,6.048375833282471,6.185003733978272,6.04331583328247,6.184223733978271,6.039155833282471C6.179723733978271,6.027795833282471,6.176353733978272,6.0152058332824705,6.174323733978271,6.00395583328247C6.154753733978271,5.934685833282471,6.143283733978271,5.862045833282471,6.143283733978271,5.786925833282471C6.143283733978271,5.294385833282471,6.578933733978271,4.896415833282471,7.1140937339782715,4.896415833282471C7.640373733978271,4.896415833282471,8.067913733978271,5.280775833282471,8.083093733978272,5.76117583328247L9.315013733978272,5.600255833282471L9.315013733978272,5.1550558332824705L8.94841373397827,4.68140583328247L8.948193733978272,4.682415833282471C8.882743733978272,4.591215833282471,8.810323733978272,4.50676583328247,8.729363733978271,4.42950583328247C8.421803733978273,4.138481833282471,8.009773733978271,3.9603568332824706,7.492153733978272,3.8982838332824707L7.492153733978272,3.2276158332824707L6.782583733978271,3.2276158332824707L6.782583733978271,3.8982838332824707C6.222453733978272,3.9543968332824706,5.772533733978271,4.1636718332824705,5.435060733978272,4.527565833282471C5.098152733978272,4.890225833282471,4.929248733978271,5.33958583328247,4.929248733978271,5.873855833282471C4.929248733978271,6.4022658332824705,5.079485733978271,6.850385833282471,5.376697733978271,7.221255833282471C5.675709733978271,7.59077583328247,6.143733733978271,7.866625833282471,6.782583733978271,8.050145833282471C6.884803733978272,8.08309583328247,7.427163733978272,8.24030583328247,7.492153733978272,8.260435833282472C7.784643733978271,8.34465583328247,7.996393733978271,8.465775833282471,8.124813733978272,8.62331583328247C8.253463733978272,8.782215833282471,8.31857373397827,8.97090583328247,8.31857373397827,9.189855833282472C8.31857373397827,9.433205833282472,8.241653733978271,9.646525833282471,8.088273733978271,9.827345833282472C7.934543733978272,10.00738583328247,7.735843733978271,10.121075833282472,7.492153733978272,10.16695583328247C7.220693733978271,10.21306583328247,6.919433733978272,10.176175833282471,6.782583733978271,10.09813583328247C6.607153733978271,10.01368583328247,6.447133733978271,9.87637583328247,6.303193733978271,9.68813583328247C6.159363733978271,9.49819583328247,6.0631137339782715,9.273965833282471,6.009803733978272,9.01206583328247L4.7341437339782715,8.70529583328247L4.7341437339782715,9.15015583328247C4.832315033978271,9.79237583328247,5.057107733978271,10.288965833282472,5.408634733978271,10.64128583328247C5.760503733978272,10.992695833282472,6.218183733978272,11.203205833282471,6.782583733978271,11.271465833282472L6.782583733978271,11.91278583328247L7.492153733978272,11.91278583328247L7.492153733978272,11.247395833282472C8.127173733978271,11.156425833282471,8.623093733978271,10.90959583328247,8.980353733978271,10.504425833282472C9.336493733978273,10.10038583328247,9.515063733978272,9.602775833282472,9.515063733978272,9.01206583328247C9.515063733978272,8.485005833282472,9.373823733978272,8.051835833282471,9.089773733978271,7.714585833282471L9.089773733978271,7.714585833282471Z" fill-rule="evenodd" fill="#F57F17" fill-opacity="1"/></g><g><path d="M7.492153733978272,6.446685628433228C7.445263733978272,6.4329656284332275,6.886033733978271,6.257425628433228,6.782583733978271,6.2110956284332275C6.570603733978271,6.120235628433227,6.412833733978271,6.000805628433227,6.308363733978272,5.851925628433228C6.253493733978272,5.773545628433228,6.213343733978272,5.692235628433227,6.186693733978272,5.606665628433228C6.186473733978271,5.6031756284332275,6.185003733978272,5.598345628433227,6.184223733978271,5.594405628433227C6.179723733978271,5.582595628433228,6.176353733978272,5.570905628433227,6.174323733978271,5.5593256284332275C6.154753733978271,5.489715628433228,6.143283733978271,5.417065628433228,6.143283733978271,5.341945628433228C6.143283733978271,4.8491856284332275,6.578933733978271,4.451665628433227,7.1140937339782715,4.451665628433227C7.640373733978271,4.451665628433227,8.067913733978271,4.8360256284332275,8.083093733978272,5.315975628433227L9.315013733978272,5.155055628433228C9.230333733978272,4.666675628433228,9.034333733978272,4.275785628433228,8.729363733978271,3.984875628433228C8.421803733978273,3.6936196284332277,8.009773733978271,3.5151566284332274,7.492153733978272,3.4535326284332273L7.492153733978272,2.7824156284332275L6.782583733978271,2.7824156284332275L6.782583733978271,3.4535326284332273C6.222453733978272,3.5096466284332273,5.772533733978271,3.7189216284332276,5.435060733978272,4.082815628433227C5.098152733978272,4.445365628433228,4.929248733978271,4.894615628433227,4.929248733978271,5.428655628433228C4.929248733978271,5.9572956284332275,5.079485733978271,6.405525628433228,5.376697733978271,6.775725628433228C5.675709733978271,7.146025628433228,6.143733733978271,7.422325628433228,6.782583733978271,7.605395628433228C6.884803733978272,7.637895628433228,7.427163733978272,7.795445628433227,7.492153733978272,7.815905628433227C7.784643733978271,7.899575628433228,7.996393733978271,8.020455628433227,8.124813733978272,8.178345628433227C8.253463733978272,8.337465628433227,8.31857373397827,8.525825628433228,8.31857373397827,8.744425628433227C8.31857373397827,8.988115628433228,8.241653733978271,9.201215628433228,8.088273733978271,9.382485628433226C7.934543733978272,9.562635628433227,7.735843733978271,9.675985628433228,7.492153733978272,9.721755628433227C7.220693733978271,9.768195628433228,6.919433733978272,9.731205628433226,6.782583733978271,9.653155628433227C6.607153733978271,9.568485628433226,6.447133733978271,9.431515628433228,6.303193733978271,9.243045628433228C6.159363733978271,9.053115628433227,6.0631137339782715,8.829215628433229,6.009803733978272,8.567095628433227L4.7341437339782715,8.705295628433227C4.832315033978271,9.347065628433228,5.057107733978271,9.844105628433226,5.408634733978271,10.196195628433227C5.760503733978272,10.547495628433229,6.218183733978272,10.758345628433228,6.782583733978271,10.826715628433227L6.782583733978271,11.467805628433227L7.492153733978272,11.467805628433227L7.492153733978272,10.802315628433227C8.127173733978271,10.711225628433228,8.623093733978271,10.464165628433229,8.980353733978271,10.059455628433227C9.336493733978273,9.655525628433228,9.515063733978272,9.157915628433226,9.515063733978272,8.567095628433227C9.515063733978272,8.039915628433228,9.373823733978272,7.606635628433228,9.089773733978271,7.269385628433228C8.807513733978272,6.932705628433228,8.273143733978271,6.657875628433228,7.492153733978272,6.446685628433228L7.492153733978272,6.446685628433228Z" fill-rule="evenodd" fill="#FFD740" fill-opacity="1"/></g><g><path d="M4.9331775,2.386694028491974C3.7012575,2.613404028491974,3.5176274999999997,2.7973740284919737,3.2909175,4.029174028491974C3.0638775000000003,2.7973740284919737,2.8801275,2.613404028491974,1.6484375,2.386694028491974C2.8801275,2.159874028491974,3.0638775000000003,1.9760140284919738,3.2909175,0.7443240284919739C3.5176274999999997,1.9760140284919738,3.7012575,2.159874028491974,4.9331775,2.386694028491974L4.9331775,2.386694028491974Z" fill-rule="evenodd" fill="#FFFFFF" fill-opacity="1"/></g></g></svg>