<svg xmlns="http://www.w3.org/2000/svg" xmlns:xlink="http://www.w3.org/1999/xlink" fill="none" version="1.1" width="16" height="14.707361221313477" viewBox="0 0 16 14.707361221313477"><defs><clipPath id="master_svg0_286_15596"><rect x="0" y="0" width="16" height="14.707361221313477" rx="0"/></clipPath></defs><g clip-path="url(#master_svg0_286_15596)"><g><path d="M11.505,9.6619865625L8.65528,12.5117765625L5.80551,9.6619865625L3.56654,7.4230065625L6.4163,4.5732365625L8.65528,6.8122165625L11.8174,3.6505665625L11.8174,1.9129365625C11.8171,0.8569195625,10.961,0.000976770688,9.90498,0.000976726306L1.69783,0.000976726306C0.6415,0.0005441105,0,0.8570315625,0,1.9124965625L0,12.4827765625C0,13.5399765625,0.6415,14.3964765625,1.69783,14.3964765625L9.90498,14.3964765625C10.9613,14.3964765625,11.8174,13.5398765625,11.8169,12.4836765625L11.8169,9.3500965625L11.505,9.6624165625L11.505,9.6619865625Z" fill="#F9D11F" fill-opacity="1" style="mix-blend-mode:passthrough"/></g><g><path d="M15.8839728125,5.2823871874999995L13.0346328125,2.4326171875L11.8173828125,3.6502971875L11.8173828125,9.349407187499999L15.8839728125,5.2823871874999995Z" fill="#1DA1F3" fill-opacity="1" style="mix-blend-mode:passthrough"/></g><g><path d="M6.4162983203124995,4.5725170625L3.5665283203125,7.4222840625L5.8055083203125,9.661264062499999L8.655278320312501,12.5110340625L11.5050483203125,9.661264062499999L11.8173583203125,9.348954062499999L11.8173583203125,3.6494140625L8.655278320312501,6.8114940625L6.4162983203124995,4.5725170625Z" fill="#1EA0F2" fill-opacity="1" style="mix-blend-mode:passthrough"/></g><g><path d="M1.71856689453125,3.4374962499999997L10.09830689453125,3.4374962499999997L10.09830689453125,1.50390625L1.71856689453125,1.50390625L1.71856689453125,3.4374962499999997ZM1.71899950953125,12.67670625L4.29711689453125,12.67670625L4.29711689453125,10.74315625L1.71899972953125,10.74315625L1.71899950953125,12.67670625Z" fill="#FFFFFF" fill-opacity="1" style="mix-blend-mode:passthrough"/></g></g></svg>