<svg xmlns="http://www.w3.org/2000/svg" xmlns:xlink="http://www.w3.org/1999/xlink" fill="none" version="1.1" width="18.341644287109375" height="18.341552734375" viewBox="0 0 18.341644287109375 18.341552734375"><g><path d="M0,9.17082C0,4.10583,4.10583,0,9.17082,0C14.2358,0,18.3416,4.10583,18.3416,9.17082C18.3416,14.2358,14.2358,18.3416,9.17082,18.3416C4.10583,18.3416,0,14.2358,0,9.17082ZM12.0646,9.74552C12.214,9.59614,12.2981,9.39345,12.2981,9.18201L12.2981,9.15906C12.2981,8.94762,12.214,8.74494,12.0646,8.59555L8.39977,4.93068C8.08855,4.61946,7.58417,4.61946,7.27295,4.93068C6.96192,5.24191,6.96192,5.74629,7.27295,6.05751L10.386,9.17054L7.27295,12.2836C6.96192,12.5948,6.96192,13.0992,7.27295,13.4104C7.42856,13.566,7.63241,13.6436,7.83626,13.6436C8.04031,13.6436,8.24416,13.566,8.39977,13.4104L12.0646,9.74552Z" fill-rule="evenodd" fill="#069DB2" fill-opacity="1"/></g></svg>